<?xml version="1.0" standalone="no"?><!DOCTYPE svg PUBLIC "-//W3C//DTD SVG 1.1//EN" "http://www.w3.org/Graphics/SVG/1.1/DTD/svg11.dtd"><svg t="1780780297040" class="icon" viewBox="0 0 1024 1024" version="1.1" xmlns="http://www.w3.org/2000/svg" p-id="6261" xmlns:xlink="http://www.w3.org/1999/xlink" width="200" height="200"><path d="M252.8 652.8l167.893333-94.293333 2.773334-8.106667-2.773334-4.48h-8.106666l-28.16-1.706667-96-2.56-83.2-3.413333-80.64-4.266667-20.266667-4.266666L85.333333 504.746667l1.92-12.586667 17.066667-11.52 24.32 2.133333 53.973333 3.626667 81.066667 5.546667 58.666667 3.413333 87.04 9.173333h13.866666l1.92-5.546666-4.693333-3.413334-3.626667-3.413333-83.84-56.746667-90.666666-60.16-47.573334-34.56-25.813333-17.493333-13.013333-16.426667-5.546667-35.84 23.253333-25.813333 31.36 2.133333 7.893334 2.133334 31.786666 24.32 67.84 52.48L401.066667 391.466667l13.013333 10.88 5.12-3.626667 0.64-2.56-5.76-9.813333-48.213333-87.04L314.453333 210.773333l-22.826666-36.693333-5.973334-21.973333a107.861333 107.861333 0 0 1-3.626666-26.026667l26.666666-36.053333L323.413333 85.333333l35.413334 4.693334 14.933333 13.013333 21.973333 50.346667 35.626667 79.36 55.253333 107.733333 16.213334 32 8.746666 29.653333 3.2 9.173334h5.546667v-5.12l4.48-60.8 8.32-74.453334 8.106667-96 2.773333-27.093333 13.44-32.426667 26.666667-17.493333 20.693333 10.026667 17.066667 24.32-2.346667 15.786666-10.24 65.92-19.84 103.253334-13.013333 69.12h7.466666l8.746667-8.746667 34.986667-46.506667 58.666666-73.386666 26.026667-29.226667 30.293333-32.213333 19.413334-15.36h36.693333l27.093333 40.106666-12.16 41.386667-37.76 48-31.36 40.533333-45.013333 60.586667-28.16 48.426667 2.56 3.84 6.613333-0.64 101.546667-21.546667 54.826667-10.026667 65.493333-11.306666 29.653333 13.866666 3.2 14.08-11.733333 28.8-69.973333 17.28-82.133334 16.426667-122.24 29.013333-1.493333 1.066667 1.706667 2.133333 55.04 5.12 23.466666 1.28h57.6l107.306667 7.893334 28.16 18.56 16.853333 22.613333-2.773333 17.28-43.306667 21.973333-58.24-13.866666-136.106666-32.426667-46.72-11.733333h-6.4v3.84l38.826666 37.973333 71.253334 64.426667 89.173333 82.986666 4.48 20.48-11.52 16.213334-12.16-1.706667-78.506667-58.88-30.293333-26.666667-68.48-57.6h-4.48v5.973334l15.786667 23.04 83.413333 125.226666 4.266667 38.4-5.973334 12.586667-21.546666 7.466667-23.68-4.266667-48.853334-68.48-50.346666-77.226667-40.533334-69.12-4.906666 2.773334-23.893334 258.133333-11.306666 13.226667-26.026667 10.026666-21.546667-16.426666-11.52-26.666667 11.52-52.48 13.866667-68.48 11.306667-54.4 10.24-67.626667 5.973333-22.4-0.426667-1.493333-4.906666 0.64-50.986667 69.973333-77.653333 104.746667-61.44 65.706667-14.72 5.76-25.386667-13.226667 2.346667-23.466667 14.293333-20.906666 84.906667-107.946667 51.2-66.986667 33.066666-38.613333v-5.546667h-2.133333l-225.493333 146.56-40.106667 5.12-17.28-16.213333 2.133333-26.666667 8.106667-8.746666 67.84-46.72h-0.213333l0.853333 0.853333z" fill="#D97757" p-id="6262"></path></svg>