<?xml version="1.0" standalone="no"?><!DOCTYPE svg PUBLIC "-//W3C//DTD SVG 1.1//EN" "http://www.w3.org/Graphics/SVG/1.1/DTD/svg11.dtd"><svg t="1780780282888" class="icon" viewBox="0 0 1024 1024" version="1.1" xmlns="http://www.w3.org/2000/svg" p-id="5273" xmlns:xlink="http://www.w3.org/1999/xlink" width="200" height="200"><path d="M565.265178 954.519092c-22.289934 0-48.400999-8.151747-67.952455-14.838727a103.425292 103.425292 0 0 1-26.875292-11.272338c-12.737105-7.769634-15.411897-8.342804-19.806198-24.773669 21.971506-5.158528 81.581157-41.905075 103.871091-55.342721 148.896757-89.159735 119.028246-10.444426 119.028246-364.981743 15.029784 3.566389 82.791182 32.415932 82.791182 57.316972 0 133.102747 20.570425 273.847757-52.604243 354.91943-22.799418 25.47421-91.834527 58.972796-138.388646 58.972796z m-433.061569-299.321966c258.626916 136.860193 184.369594 157.048504 357.721593 52.094759 44.579867-27.193719 90.433445-49.292596 132.593263-77.568969v101.896839c-95.528287 22.226248-272.319304 227.038896-419.050754 100.686815l-25.856323-25.155782c-37.319718-43.943012-45.344094-72.410442-45.344094-151.889977z m375.744596-19.105658c-19.933569-13.310275-79.479535-51.330533-101.896839-57.316972v-133.739602a1158.312326 1158.312326 0 0 0 101.896839-57.316973c43.943012 10.189684 70.690933 47.063603 114.633945 57.316973v127.371049c-17.831947 12.10025-95.846715 58.718054-114.633945 63.749211z m-426.693016-178.31947c0-63.685525-4.26693-90.306074 38.84817-145.776166 23.945757-30.88748 47.509402-39.612396 82.090641-57.953828v261.110652c44.134069 23.372588 83.873836 49.037854 129.345301 74.448379l131.765351 78.396881c-59.545966 15.921381-63.685525 61.32916-109.602788 33.753328-104.699003-62.730242-272.38299-129.345301-272.38299-243.91556z m866.123138 127.37105c0 79.543221-47.573087 161.188063-121.002497 178.31947v-165.582365c0-82.791182 9.743885-84.574377-48.910483-116.608196L565.265178 362.371082c15.79401-23.62733 22.608361-19.105657 48.146256-34.835982 41.714019-25.47421 39.039227-16.112438 117.053995 28.785857 94.190891 54.196382 216.849212 100.559444 216.849212 228.885777z m-541.326961-197.425127v-95.528287c43.751956-23.181531 90.688187-50.94842 133.357489-76.804743 82.154327-49.547338 95.528287-63.303412 185.006449-63.303412 48.464684 0 102.533695 36.746548 125.651541 65.405034 42.223503 52.22213 39.930824 92.662439 39.930824 151.125751-31.078536-16.494551-192.393971-121.002497-222.899337-121.002498s-229.650003 123.422547-261.110652 140.108155z m-50.94842 159.213812c-16.36718-10.95391-63.112355-39.99451-82.791183-44.579867 0-168.320842-33.880699-314.606493 67.952455-390.519639 56.043262-41.714019 113.169178-53.814269 181.376375-30.696423 25.47421 8.661231 35.536523 20.888852 56.36169 26.429493-11.781822 16.048752-80.68956 50.311565-102.278953 63.303412-154.564769 93.235608-120.620384 7.451206-120.620384 376.063024z m-292.953415 121.002498c0 169.148754 115.143429 280.853165 274.293556 273.847756 59.800708-2.674792 26.811606-7.705949 69.417222 25.47421 97.820966 76.741057 228.822091 73.747838 319.637649 1.018969a251.939936 251.939936 0 0 0 52.604244-55.661149c58.20857-85.274918-10.95391-45.598836 81.96327-83.619094 130.236898-53.241099 199.399378-217.358696 128.64476-355.428914-27.448461-53.559526-40.249252-28.849543-28.276373-104.699003 18.723544-118.582447-63.176041-230.032116-157.621674-269.771884-98.90362-41.586648-129.090559 12.737105-178.892639-37.574459A161.888604 161.888604 0 0 0 580.103905 28.913674C474.003821-27.766443 331.284559 1.528898 258.428319 93.681853c-81.326415 102.979494 9.489143 54.705866-92.407697 98.648878C15.149614 257.353652-33.251385 439.175825 41.579107 561.06992c56.807488 92.598753 20.570425 4.967471 20.570424 106.800625z" fill="#10A37F" p-id="5274"></path></svg>