<?xml version="1.0" standalone="no"?><!DOCTYPE svg PUBLIC "-//W3C//DTD SVG 1.1//EN" "http://www.w3.org/Graphics/SVG/1.1/DTD/svg11.dtd"><svg t="1780749211526" class="icon" viewBox="0 0 1024 1024" version="1.1" xmlns="http://www.w3.org/2000/svg" p-id="4808" xmlns:xlink="http://www.w3.org/1999/xlink" width="200" height="200"><path d="M0 0h1024v1024H0V0z" fill="#6566F1" p-id="4809"></path><path d="M660.48 230.4c19.282 7.71 35.144 15.258 52.818 25.661l15.713 9.211 16.272 9.61 15.846 9.309a24386.387 24386.387 0 0 1 31.652 18.616A21568.348 21568.348 0 0 0 870.4 348.16c-16 17.69-32.635 28.283-53.52 39.68l-9.604 5.274c-10.087 5.53-20.204 11.008-30.316 16.486l-20.142 11.039c-31.816 17.413-63.724 34.509-96.338 50.401V409.6c-99.584 3.348-159.718 29.645-240.742 86.784a637.932 637.932 0 0 1-40.858 25.856c92.703 69.432 163.543 110.193 281.6 112.64v-61.44l38.912 21.228c11.96 6.522 23.926 13.035 35.891 19.543a18101.373 18101.373 0 0 1 48.922 26.705 8587.264 8587.264 0 0 0 20.347 11.08 7257.022 7257.022 0 0 1 29.726 16.246l17.685 9.64c13.317 8.198 13.317 8.198 18.437 18.438l-11.715 6.482a73636.722 73636.722 0 0 0-43.97 24.36l-18.857 10.446a24808.207 24808.207 0 0 0-36.613 20.285 1638.538 1638.538 0 0 0-44.816 25.764l-16.588 9.923-14.746 8.97c-12.375 6.41-12.375 6.41-27.735 6.41v-51.2l-21.94 0.901c-101.344 2.913-170.895-22.518-254.32-79.682-68.838-47.058-123.801-73.15-205.02-95.299V460.8l35.84-7.68c65.132-15.575 119.788-46.423 173.332-85.883 88.105-64.783 168.684-84.48 277.228-80.517V230.4z" fill="#F8F8FE" p-id="4810"></path></svg>