<?xml version="1.0" standalone="no"?><!DOCTYPE svg PUBLIC "-//W3C//DTD SVG 1.1//EN" "http://www.w3.org/Graphics/SVG/1.1/DTD/svg11.dtd"><svg t="1780747097053" class="icon" viewBox="0 0 1024 1024" version="1.1" xmlns="http://www.w3.org/2000/svg" p-id="5162" xmlns:xlink="http://www.w3.org/1999/xlink" width="200" height="200"><path d="M0 512a512 512 0 1 0 1024 0 512 512 0 1 0-1024 0Z" fill="#FFFFFF" p-id="5163"></path><path d="M311.2704 329.8816h-86.016a16.5632 16.5632 0 0 0-14.336 8.2688l-47.7952 82.7648a16.5888 16.5888 0 0 0 0 16.5632l196.1472 339.4048h95.36l141.696-119.04-285.056-327.9616z" fill="#615CED" p-id="5164"></path><path d="M253.952 594.7904l-43.0336 74.496a16.5376 16.5376 0 0 0 0 16.5632l47.7952 82.7648a16.4352 16.4352 0 0 0 14.336 8.2944h181.5808l-200.704-182.1184zM770.1248 429.184l43.008-74.4704a16.5632 16.5632 0 0 0 0-16.5632l-47.7952-82.7648a16.5888 16.5888 0 0 0-14.336-8.2944l-392.0128 0.1792-47.6928 82.5856 32.256 182.2208 426.5728-82.8928z" fill="#615CED" p-id="5165"></path><path d="M569.344 247.1168l-43.008-74.496a16.5376 16.5376 0 0 0-14.336-8.2944h-95.5904a16.4352 16.4352 0 0 0-14.336 8.2688l-43.4688 75.2896-47.3344 81.9712L569.344 247.1168zM454.656 776.9344l42.9824 74.496a16.5632 16.5632 0 0 0 14.336 8.2688h95.5904a16.5888 16.5888 0 0 0 14.336-8.2688l195.84-339.584-47.6672-82.6112-173.9264-63.1552-141.5168 410.8544z" fill="#615CED" p-id="5166"></path><path d="M712.704 694.1184h86.0416c5.9136 0 11.392-3.1744 14.336-8.2944l47.7952-82.7648a16.4352 16.4352 0 0 0 0-16.5632l-43.4688-75.2896-47.3088-81.9712-57.3696 264.8832z" fill="#615CED" p-id="5167"></path><path d="M465.3312 760.0128l-190.72 0.768 47.2576-82.688 95.488-0.4096L225.024 347.7504l95.5392-0.1792 192.128 329.5488-47.36 82.8928z" fill="#FFFFFF" p-id="5168"></path><path d="M320.5376 347.5712l94.6944-165.5296 47.9744 82.2784-47.36 82.8672 381.8752-1.5616-47.616 82.816-381.44 1.5872-48.128-82.432z" fill="#FFFFFF" p-id="5169"></path><path d="M750.1312 428.416l96 164.7616-95.232 0.4352-48.0768-82.4832-189.568 331.52-47.9232-82.6368 189.3376-331.1616 95.488-0.4352z" fill="#FFFFFF" p-id="5170"></path><path d="M512.6912 677.12l142.0032-248.2688-286.0288 1.1776 144.0256 247.1168z" fill="#605BEC" p-id="5171"></path><path d="M512.6912 677.12l-192.128-329.5488 9.472-16.5632 192.1024 329.5744-9.4464 16.5632z" fill="#605BEC" p-id="5172"></path><path d="M368.64 430.0288l381.4912-1.5872 9.6 16.4864-381.4656 1.5872-9.6256-16.4864z" fill="#605BEC" p-id="5173"></path><path d="M654.6944 428.8l-189.3376 331.1616-19.072 0.0768 189.3632-331.136 19.0464-0.1024z" fill="#605BEC" p-id="5174"></path></svg>